<?xml version="1.0" standalone="no"?>
<!DOCTYPE svg PUBLIC "-//W3C//DTD SVG 20010904//EN"
 "http://www.w3.org/TR/2001/REC-SVG-20010904/DTD/svg10.dtd">
<svg version="1.0" xmlns="http://www.w3.org/2000/svg"
 width="380.000000pt" height="380.000000pt" viewBox="0 0 380.000000 380.000000"
 preserveAspectRatio="xMidYMid meet">
<metadata>
Created by potrace 1.11, written by Peter Selinger 2001-2013
</metadata>
<g transform="translate(0.000000,380.000000) scale(0.100000,-0.100000)"
fill="#000000" stroke="none">
<path d="M2053 3146 c-9 -10 -9 -17 0 -26 9 -9 9 -11 1 -7 -7 4 -15 0 -18 -9
-4 -10 -2 -13 7 -8 6 4 1 -5 -13 -19 -27 -28 -29 -27 -64 35 -15 26 -20 29
-23 16 -5 -20 -18 -24 -28 -8 -8 13 -26 -6 -44 -45 l-13 -30 -16 21 c-10 12
-23 30 -31 41 -25 38 -74 16 -86 -38 -9 -41 -21 -44 -41 -10 -10 16 -28 35
-41 42 -19 10 -26 9 -43 -6 -11 -10 -20 -22 -20 -26 0 -4 -5 -20 -10 -34 l-10
-27 -22 28 c-30 39 -48 57 -48 48 0 -3 -6 -1 -14 5 -11 9 -16 9 -22 0 -5 -8
-3 -10 7 -5 8 4 4 -1 -8 -11 -11 -10 -24 -33 -28 -50 -4 -18 -9 -33 -12 -33
-3 0 -23 18 -44 40 -22 22 -46 40 -54 40 -9 0 -20 -20 -30 -55 -9 -30 -20 -55
-25 -55 -5 0 -17 11 -27 23 -19 25 -62 52 -69 44 -2 -2 0 -15 5 -28 5 -13 10
-18 10 -10 1 8 3 12 6 9 3 -3 2 -14 -2 -24 -6 -16 -8 -15 -19 11 l-12 30 -11
-28 c-6 -16 -11 -34 -11 -41 0 -26 -14 -25 -47 4 -18 17 -42 30 -53 30 -22 0
-40 -28 -40 -62 0 -13 -7 -33 -15 -45 -14 -20 -17 -21 -43 -7 -15 7 -39 14
-54 14 -14 0 -120 -31 -235 -70 -217 -73 -253 -93 -253 -143 0 -33 -61 -155
-108 -213 -22 -28 -68 -69 -101 -90 -33 -22 -60 -45 -60 -51 -1 -18 504 -1661
513 -1670 3 -3 33 6 68 19 144 57 280 69 355 30 23 -12 53 -22 66 -22 41 0
440 139 462 160 13 14 21 39 25 77 l5 57 110 30 c102 27 123 30 290 30 184 1
217 -3 338 -46 54 -19 57 -22 57 -54 0 -61 35 -85 253 -174 114 -46 213 -80
232 -80 68 0 83 25 234 395 76 187 245 600 375 917 155 381 236 590 236 613 0
69 -20 89 -137 138 -281 118 -315 129 -365 123 -56 -6 -68 7 -68 74 0 33 -3
41 -14 37 -10 -4 -13 -1 -9 9 9 24 -18 15 -63 -21 -46 -38 -48 -38 -58 16 -10
55 -28 66 -70 40 -19 -12 -37 -28 -40 -36 -10 -27 -22 -16 -37 32 -8 25 -22
51 -32 57 -16 9 -25 4 -58 -33 l-39 -43 -11 28 c-20 53 -34 77 -45 81 -6 2
-29 -15 -52 -39 l-41 -42 -20 48 c-12 26 -25 45 -30 42 -5 -4 -11 0 -14 6 -3
8 -20 -4 -46 -31 l-41 -45 -16 40 c-8 22 -24 46 -35 52 -17 11 -23 9 -42 -12
-12 -13 -29 -34 -38 -47 l-16 -23 -22 41 c-11 23 -25 44 -31 48 -20 12 -47 -6
-69 -45 -12 -22 -24 -40 -25 -40 -2 0 -15 25 -31 55 -28 56 -49 67 -72 41z
m-270 -40 c4 -10 1 -13 -8 -9 -8 3 -12 9 -9 14 7 12 11 11 17 -5z m-143 -15
c0 -5 -7 -11 -14 -14 -10 -4 -13 -1 -9 9 6 15 23 19 23 5z m291 -24 c-10 -9
-11 -8 -5 6 3 10 9 15 12 12 3 -3 0 -11 -7 -18z m130 0 c-10 -9 -11 -8 -5 6 3
10 9 15 12 12 3 -3 0 -11 -7 -18z m-571 -11 c0 -8 -6 -16 -13 -19 -8 -3 -14 1
-14 9 0 7 4 11 9 8 4 -3 8 0 8 5 0 6 2 11 5 11 3 0 5 -6 5 -14z m739 -31 c0
-5 -4 -3 -9 5 -5 8 -9 22 -9 30 0 16 17 -16 18 -35z m-589 27 c0 -5 -7 -9 -15
-9 -8 0 -12 4 -9 9 3 4 9 8 15 8 5 0 9 -4 9 -8z m150 2 c0 -8 -19 -13 -24 -6
-3 5 1 9 9 9 8 0 15 -2 15 -3z m598 -19 c0 -14 -1 -25 -2 -23 -1 2 -8 12 -16
22 -10 13 -10 17 -2 12 6 -4 12 -2 12 3 0 6 2 11 4 11 2 0 4 -11 4 -25z m298
10 c-8 -8 -18 -15 -22 -15 -3 0 -1 7 6 15 7 8 17 15 22 15 5 0 3 -7 -6 -15z
m170 3 c4 -6 3 -8 -4 -4 -6 3 -13 2 -17 -4 -3 -5 -2 -10 4 -10 6 0 7 -8 4 -17
-6 -15 -7 -14 -14 3 -3 10 -2 25 3 32 13 15 15 15 24 0z m-28 -73 c-3 -3 -9 2
-12 12 -6 14 -5 15 5 6 7 -7 10 -15 7 -18z m-1501 -7 c-3 -8 -6 -5 -6 6 -1 11
2 17 5 13 3 -3 4 -12 1 -19z m1341 -9 c-3 -8 -7 -3 -11 10 -4 17 -3 21 5 13 5
-5 8 -16 6 -23z m-891 -1 c-3 -8 -6 -5 -6 6 -1 11 2 17 5 13 3 -3 4 -12 1 -19z
m-137 -23 c0 -5 -5 -3 -10 5 -5 8 -10 20 -10 25 0 6 5 3 10 -5 5 -8 10 -19 10
-25z m157 -12 c-3 -10 -5 -2 -5 17 0 19 2 27 5 18 2 -10 2 -26 0 -35z m575 38
c8 11 9 11 6 1 -4 -16 -22 -18 -24 -2 -2 7 -1 6 3 -1 4 -8 8 -7 15 2z m-1176
-33 c0 -10 -1 -18 -3 -18 -1 0 -7 8 -12 18 -7 13 -6 19 2 19 7 0 13 -9 13 -19z
m1768 3 c3 -5 -1 -11 -9 -14 -9 -4 -12 -1 -8 9 6 16 10 17 17 5z m-1467 -38
c-3 -10 -5 -4 -5 12 0 17 2 24 5 18 2 -7 2 -21 0 -30z m867 21 c3 -8 2 -12 -4
-9 -6 3 -10 10 -10 16 0 14 7 11 14 -7z m151 5 c11 -16 1 -19 -13 -3 -7 8 -8
14 -3 14 5 0 13 -5 16 -11z m-308 -36 c-3 -10 -5 -4 -5 12 0 17 2 24 5 18 2
-7 2 -21 0 -30z m-843 1 c3 -8 2 -12 -4 -9 -6 3 -10 10 -10 16 0 14 7 11 14
-7z m-306 -20 c0 -15 -4 -22 -10 -16 -5 5 -6 16 -2 25 9 23 12 21 12 -9z m146
11 c-4 -8 -8 -15 -10 -15 -2 0 -4 7 -4 15 0 8 4 15 10 15 5 0 7 -7 4 -15z
m1143 -17 c-3 -8 -6 -5 -6 6 -1 11 2 17 5 13 3 -3 4 -12 1 -19z m444 -9 c-5
-13 -10 -19 -10 -12 -1 15 10 45 15 40 3 -2 0 -15 -5 -28z m152 6 c-7 -21 -12
-19 -10 4 0 11 5 18 9 15 4 -3 5 -11 1 -19z m-456 -7 c-3 -8 -6 -5 -6 6 -1 11
2 17 5 13 3 -3 4 -12 1 -19z m-1263 -4 c3 -8 2 -12 -4 -9 -6 3 -10 10 -10 16
0 14 7 11 14 -7z m721 -52 c-5 -20 -8 -23 -16 -11 -5 7 -8 21 -8 29 0 10 3 8
9 -5 7 -16 9 -12 11 20 1 26 3 32 6 16 3 -12 2 -35 -2 -49z m117 -68 c-6 -11
-8 2 -6 37 4 94 8 106 11 41 2 -34 0 -69 -5 -78z m-554 90 c-3 -14 -5 -12 -10
9 -3 19 -2 25 4 19 6 -6 8 -18 6 -28z m-274 -31 c9 -18 14 -33 12 -33 -6 0
-36 55 -36 66 0 11 5 3 24 -33z m139 24 c3 -8 2 -20 -3 -26 -5 -9 -7 -4 -7 13
0 29 2 32 10 13z m1708 -10 c-6 -8 -7 -18 -3 -22 4 -5 1 -5 -6 -1 -10 6 -10
11 -1 22 6 8 14 14 16 14 3 0 0 -6 -6 -13z m-1421 -13 c0 -8 -5 -12 -10 -9 -6
4 -8 11 -5 16 9 14 15 11 15 -7z m140 12 c0 -3 -4 -8 -10 -11 -5 -3 -10 -1
-10 4 0 6 5 11 10 11 6 0 10 -2 10 -4z m828 -21 c-3 -3 -9 2 -12 12 -6 14 -5
15 5 6 7 -7 10 -15 7 -18z m-1540 -10 c-3 -3 -9 2 -12 12 -6 14 -5 15 5 6 7
-7 10 -15 7 -18z m709 -37 c-3 -8 -6 -5 -6 6 -1 11 2 17 5 13 3 -3 4 -12 1
-19z m825 -3 c-2 -14 -8 -22 -13 -19 -5 3 -5 14 1 25 14 26 18 24 12 -6z
m-1362 -20 c0 -8 -2 -15 -4 -15 -2 0 -6 7 -10 15 -3 8 -1 15 4 15 6 0 10 -7
10 -15z m1783 -10 c-7 -21 -12 -19 -10 4 0 11 5 18 9 15 4 -3 5 -11 1 -19z
m-696 -17 c-3 -7 -5 -2 -5 12 0 14 2 19 5 13 2 -7 2 -19 0 -25z m395 10 c-7
-7 -12 -8 -12 -2 0 6 3 14 7 17 3 4 9 5 12 2 2 -3 -1 -11 -7 -17z m-133 -33
c0 -5 -4 -3 -9 5 -5 8 -9 22 -9 30 0 16 17 -16 18 -35z m-1339 -6 c0 -6 -4 -7
-10 -4 -5 3 -10 11 -10 16 0 6 5 7 10 4 6 -3 10 -11 10 -16z m267 -21 c-3 -7
-5 -2 -5 12 0 14 2 19 5 13 2 -7 2 -19 0 -25z m410 0 c-3 -7 -5 -2 -5 12 0 14
2 19 5 13 2 -7 2 -19 0 -25z m791 1 c-3 -8 -7 -3 -11 10 -4 17 -3 21 5 13 5
-5 8 -16 6 -23z m-1322 -4 c1 -8 -2 -15 -7 -15 -5 0 -9 10 -9 22 0 23 12 17
16 -7z m404 7 c0 -10 -7 -19 -15 -19 -18 0 -19 4 -2 22 16 19 17 18 17 -3z
m760 -29 c-11 -17 -11 -17 -6 0 3 10 6 24 7 30 0 9 2 9 5 0 3 -7 0 -20 -6 -30z
m290 13 c0 -2 -7 -9 -15 -16 -13 -11 -14 -10 -9 4 5 14 24 23 24 12z m-1323
-28 c-3 -8 -6 -5 -6 6 -1 11 2 17 5 13 3 -3 4 -12 1 -19z m783 12 c0 -5 -4
-10 -10 -10 -5 0 -10 5 -10 10 0 6 5 10 10 10 6 0 10 -4 10 -10z m-1184 -24
c0 -14 -5 -21 -9 -17 -4 4 -5 15 -1 24 9 24 12 21 10 -7z m1306 -18 c-6 -6 -7
0 -4 19 5 21 7 23 10 9 2 -10 0 -22 -6 -28z m-1029 15 c-3 -7 -6 -13 -8 -13
-2 0 -5 6 -8 13 -3 8 1 14 8 14 7 0 11 -6 8 -14z m-133 3 c0 -3 -4 -8 -10 -11
-5 -3 -10 -1 -10 4 0 6 5 11 10 11 6 0 10 -2 10 -4z m1557 -15 c0 -11 -5 -18
-9 -15 -4 3 -5 11 -1 19 7 21 12 19 10 -4z m-2076 -16 c65 -34 81 -68 203
-431 73 -217 118 -367 119 -396 1 -32 5 -44 13 -37 12 10 24 2 24 -15 0 -6 -5
-4 -10 4 -8 13 -10 12 -10 -4 0 -15 -3 -16 -15 -6 -8 7 -15 21 -15 32 0 10 -6
21 -14 24 -8 3 -12 13 -9 25 3 10 1 25 -4 32 -5 6 -15 32 -23 57 -7 25 -17 49
-22 54 -4 6 -8 23 -8 38 0 15 -4 28 -10 28 -5 0 -10 11 -10 25 0 14 -4 25 -10
25 -5 0 -10 10 -10 23 0 31 -76 251 -88 255 -5 1 -7 13 -5 26 3 13 0 27 -6 30
-6 4 -11 18 -11 32 0 13 -6 24 -13 24 -9 0 -12 10 -9 30 6 41 -4 40 -180 -19
-162 -54 -170 -53 -147 18 38 119 166 179 270 126z m656 -17 c-3 -8 -6 -5 -6
6 -1 11 2 17 5 13 3 -3 4 -12 1 -19z m142 -33 c0 -5 -4 -3 -9 5 -5 8 -9 22 -9
30 0 16 17 -16 18 -35z m880 5 c0 -10 -3 -8 -9 5 -12 27 -12 43 0 25 5 -8 9
-22 9 -30z m-636 0 c-3 -12 -8 -19 -11 -16 -5 6 5 36 12 36 2 0 2 -9 -1 -20z
m-646 -12 c-3 -8 -6 -5 -6 6 -1 11 2 17 5 13 3 -3 4 -12 1 -19z m1657 -4 c3
-8 2 -12 -4 -9 -6 3 -10 10 -10 16 0 14 7 11 14 -7z m-1509 -24 c9 -16 13 -30
11 -30 -3 0 -12 14 -21 30 -9 17 -13 30 -11 30 3 0 12 -13 21 -30z m130 20 c3
-5 1 -10 -4 -10 -6 0 -11 5 -11 10 0 6 2 10 4 10 3 0 8 -4 11 -10z m752 -12
c-3 -8 -6 -5 -6 6 -1 11 2 17 5 13 3 -3 4 -12 1 -19z m-742 -28 c3 -5 1 -10
-4 -10 -6 0 -11 5 -11 10 0 6 2 10 4 10 3 0 8 -4 11 -10z m-118 -62 c-3 -8 -6
-5 -6 6 -1 11 2 17 5 13 3 -3 4 -12 1 -19z m840 -15 c-3 -10 -5 -4 -5 12 0 17
2 24 5 18 2 -7 2 -21 0 -30z m763 33 c0 -2 -8 -10 -17 -17 -16 -13 -17 -12 -4
4 13 16 21 21 21 13z m-1473 -48 c-3 -7 -5 -2 -5 12 0 14 2 19 5 13 2 -7 2
-19 0 -25z m490 10 c-3 -8 -6 -5 -6 6 -1 11 2 17 5 13 3 -3 4 -12 1 -19z m828
-18 c-4 -12 -9 -19 -12 -17 -3 3 -2 15 2 27 4 12 9 19 12 17 3 -3 2 -15 -2
-27z m-829 -27 c-8 -8 -12 -3 -21 27 l-7 25 17 -23 c9 -13 14 -26 11 -29z
m696 10 c-6 -3 -9 -10 -6 -15 4 -7 2 -8 -5 -4 -9 6 -9 11 0 22 6 8 15 12 18 8
3 -4 0 -9 -7 -11z m-352 -28 c0 -5 -5 -3 -10 5 -5 8 -10 20 -10 25 0 6 5 3 10
-5 5 -8 10 -19 10 -25z m1024 9 c9 -8 16 -22 16 -30 0 -15 -35 -54 -48 -54
-18 0 -52 33 -52 50 0 24 26 50 50 50 10 0 26 -7 34 -16z m-1724 -4 c0 -5 -4
-10 -10 -10 -5 0 -10 5 -10 10 0 6 5 10 10 10 6 0 10 -4 10 -10z m580 -45 c-6
-8 -10 -18 -7 -22 2 -4 1 -17 -4 -28 -7 -19 -8 -18 -8 4 -1 13 5 42 12 65 9
33 13 36 15 18 2 -13 -2 -29 -8 -37z m342 33 c-7 -7 -12 -8 -12 -2 0 6 3 14 7
17 3 4 9 5 12 2 2 -3 -1 -11 -7 -17z m369 -1 c-10 -9 -11 -8 -5 6 3 10 9 15
12 12 3 -3 0 -11 -7 -18z m-260 -34 c-12 -20 -14 -14 -5 12 4 9 9 14 11 11 3
-2 0 -13 -6 -23z m-1390 -16 c-10 -9 -11 -8 -5 6 3 10 9 15 12 12 3 -3 0 -11
-7 -18z m1279 13 c0 -5 -2 -10 -4 -10 -3 0 -8 5 -11 10 -3 6 -1 10 4 10 6 0
11 -4 11 -10z m240 6 c0 -2 -8 -10 -17 -17 -16 -13 -17 -12 -4 4 13 16 21 21
21 13z m734 -25 c21 -23 14 -56 -15 -72 -46 -24 -96 54 -51 80 26 16 47 13 66
-8z m-1204 -6 c0 -8 -2 -15 -4 -15 -2 0 -6 7 -10 15 -3 8 -1 15 4 15 6 0 10
-7 10 -15z m590 11 c0 -2 -8 -10 -17 -17 -16 -13 -17 -12 -4 4 13 16 21 21 21
13z m-1263 -38 c-3 -8 -6 -5 -6 6 -1 11 2 17 5 13 3 -3 4 -12 1 -19z m883 -28
c0 -5 -5 -10 -11 -10 -5 0 -7 5 -4 10 3 6 8 10 11 10 2 0 4 -4 4 -10z m-441
-40 c0 -10 -3 -8 -9 5 -12 27 -12 43 0 25 5 -8 9 -22 9 -30z m1191 12 c18 -14
21 -25 16 -45 -8 -35 -49 -46 -76 -22 -25 23 -25 40 0 65 25 25 32 25 60 2z
m-983 -24 c-3 -7 -5 -2 -5 12 0 14 2 19 5 13 2 -7 2 -19 0 -25z m338 22 c3 -5
1 -10 -4 -10 -6 0 -11 5 -11 10 0 6 2 10 4 10 3 0 8 -4 11 -10z m-1320 -10 c3
-5 1 -10 -4 -10 -6 0 -11 5 -11 10 0 6 2 10 4 10 3 0 8 -4 11 -10z m-791 -21
c17 -25 12 -45 -15 -60 -26 -14 -59 5 -59 34 0 47 48 63 74 26z m1991 11 c3
-5 1 -10 -4 -10 -6 0 -11 5 -11 10 0 6 2 10 4 10 3 0 8 -4 11 -10z m-962 -35
c4 -8 3 -16 -1 -19 -4 -3 -9 4 -9 15 -2 23 3 25 10 4z m1899 -12 c22 -20 23
-41 1 -65 -20 -22 -41 -23 -65 -1 -24 22 -23 49 4 67 28 20 37 20 60 -1z
m-3088 -12 c19 -21 13 -47 -16 -62 -37 -20 -76 39 -46 69 17 17 42 15 62 -7z
m1624 -56 c0 -16 -2 -15 -8 5 -4 14 -8 34 -8 45 0 16 2 15 8 -5 4 -14 8 -34 8
-45z m99 -27 c-2 -18 -4 -4 -4 32 0 36 2 50 4 33 2 -18 2 -48 0 -65z m106 72
c-3 -11 -7 -20 -9 -20 -2 0 -4 9 -4 20 0 11 4 20 9 20 5 0 7 -9 4 -20z m204
-2 c-3 -8 -6 -5 -6 6 -1 11 2 17 5 13 3 -3 4 -12 1 -19z m-620 -20 c-3 -8 -6
-5 -6 6 -1 11 2 17 5 13 3 -3 4 -12 1 -19z m-313 -14 c5 -14 4 -15 -9 -4 -17
14 -19 20 -6 20 5 0 12 -7 15 -16z m924 -20 c0 -17 -3 -22 -8 -13 -5 6 -6 18
-3 26 8 19 11 16 11 -13z m-198 -31 c-11 -17 -11 -17 -6 0 3 10 6 24 7 30 0 9
2 9 5 0 3 -7 0 -20 -6 -30z m94 -2 c-4 -17 -9 -30 -11 -27 -3 2 -2 19 2 36 4
17 9 30 11 27 2 -2 1 -18 -2 -36z m411 19 c3 -5 1 -10 -4 -10 -6 0 -11 5 -11
10 0 6 2 10 4 10 3 0 8 -4 11 -10z m532 -16 c13 -20 12 -25 -10 -49 -26 -31
-53 -29 -75 6 -11 17 -11 25 3 45 20 31 61 29 82 -2z m-2665 -1 c21 -19 23
-44 6 -61 -18 -18 -42 -15 -62 7 -23 25 -5 63 33 70 3 1 13 -6 23 -16z m1025
-40 c1 -22 -1 -24 -8 -10 -6 9 -7 22 -4 27 9 14 10 13 12 -17z m290 -5 c-3 -8
-6 -5 -6 6 -1 11 2 17 5 13 3 -3 4 -12 1 -19z m-1466 -9 c18 -18 19 -23 6 -42
-17 -26 -43 -33 -62 -17 -19 16 -19 45 1 64 20 21 30 20 55 -5z m1679 -14 c0
-5 -5 -3 -10 5 -5 8 -10 20 -10 25 0 6 5 3 10 -5 5 -8 10 -19 10 -25z m1298
13 c20 -20 14 -56 -13 -74 -25 -16 -27 -16 -50 6 -29 28 -31 37 -8 62 18 21
53 24 71 6z m-1597 -39 c-5 -13 -10 -19 -10 -12 -1 15 10 45 15 40 3 -2 0 -15
-5 -28z m386 9 c-3 -8 -6 -5 -6 6 -1 11 2 17 5 13 3 -3 4 -12 1 -19z m390 0
c-3 -8 -6 -5 -6 6 -1 11 2 17 5 13 3 -3 4 -12 1 -19z m80 -40 c-3 -8 -6 -5 -6
6 -1 11 2 17 5 13 3 -3 4 -12 1 -19z m-370 -10 c-3 -8 -6 -5 -6 6 -1 11 2 17
5 13 3 -3 4 -12 1 -19z m-284 -40 l-10 -33 1 42 c0 26 4 39 10 33 6 -6 5 -22
-1 -42z m191 22 c-6 -6 -10 -3 -10 10 0 13 4 16 10 10 7 -7 7 -13 0 -20z
m-670 4 c3 -8 2 -12 -4 -9 -6 3 -10 10 -10 16 0 14 7 11 14 -7z m1636 -4 c24
-24 24 -29 4 -58 -17 -24 -53 -29 -72 -10 -19 19 -14 55 10 72 29 20 34 20 58
-4z m-2532 -2 c18 -18 15 -42 -7 -62 -37 -33 -88 19 -55 55 20 22 45 24 62 7z
m2015 -33 c-3 -9 -8 -14 -10 -11 -3 3 -2 9 2 15 9 16 15 13 8 -4z m94 -7 c-3
-8 -6 -5 -6 6 -1 11 2 17 5 13 3 -3 4 -12 1 -19z m-917 2 c0 -5 -4 -10 -10
-10 -5 0 -10 5 -10 10 0 6 5 10 10 10 6 0 10 -4 10 -10z m730 0 c0 -5 -2 -10
-4 -10 -3 0 -8 5 -11 10 -3 6 -1 10 4 10 6 0 11 -4 11 -10z m-2082 -12 c17
-17 15 -42 -7 -62 -21 -19 -41 -14 -58 13 -23 37 34 80 65 49z m1812 -8 c0 -5
-2 -10 -4 -10 -3 0 -8 5 -11 10 -3 6 -1 10 4 10 6 0 11 -4 11 -10z m1042 -2
c24 -20 28 -44 12 -67 -17 -23 -53 -28 -72 -9 -17 17 -15 54 4 72 19 19 35 20
56 4z m-1313 -40 c1 -5 -3 -8 -9 -8 -5 0 -10 12 -9 28 0 24 1 25 9 7 5 -11 9
-23 9 -27z m178 20 c-3 -8 -6 -5 -6 6 -1 11 2 17 5 13 3 -3 4 -12 1 -19z m244
-11 c-10 -9 -11 -8 -5 6 3 10 9 15 12 12 3 -3 0 -11 -7 -18z m-603 -43 c0 -17
-3 -22 -8 -13 -5 6 -6 18 -3 26 8 19 11 16 11 -13z m355 6 c-3 -12 -8 -19 -11
-16 -5 6 5 36 12 36 2 0 2 -9 -1 -20z m-1498 -40 c9 -15 -4 -47 -22 -54 -46
-18 -81 35 -43 66 22 18 50 13 65 -12z m2407 3 c25 -23 23 -50 -7 -69 -23 -15
-27 -15 -50 0 -29 19 -32 42 -8 68 20 22 41 23 65 1z m-1937 -12 c3 -5 2 -12
-3 -15 -5 -3 -9 1 -9 9 0 17 3 19 12 6z m28 -11 c3 -11 1 -20 -4 -20 -5 0 -9
9 -9 20 0 11 2 20 4 20 2 0 6 -9 9 -20z m-669 -16 c19 -18 21 -45 4 -62 -18
-18 -43 -15 -63 8 -17 18 -17 21 -1 45 19 29 38 32 60 9z m1156 -29 c0 -5 -5
-3 -10 5 -5 8 -10 20 -10 25 0 6 5 3 10 -5 5 -8 10 -19 10 -25z m167 3 c-3 -8
-6 -5 -6 6 -1 11 2 17 5 13 3 -3 4 -12 1 -19z m421 -3 c-3 -3 -9 2 -12 12 -6
14 -5 15 5 6 7 -7 10 -15 7 -18z m1006 -4 c37 -41 -14 -97 -60 -66 -26 17 -30
35 -14 66 14 24 52 25 74 0z m-2083 -24 c0 -12 3 -16 6 -9 8 21 30 -28 95
-218 33 -96 61 -192 61 -212 0 -77 -74 -159 -161 -179 -42 -9 -103 3 -126 26
-8 8 -19 15 -25 15 -6 0 -15 9 -21 20 -6 11 -9 20 -6 20 6 0 300 102 304 106
4 2 -13 59 -29 99 -4 11 -13 38 -20 60 -7 22 -17 44 -21 50 -4 5 -8 19 -8 30
0 12 -3 25 -7 29 -8 8 -9 13 -12 41 0 8 -7 15 -15 15 -9 0 -12 7 -9 20 3 10
-2 40 -11 66 -19 56 -19 57 -6 49 6 -3 10 -16 11 -28z m1306 1 c-3 -8 -6 -5
-6 6 -1 11 2 17 5 13 3 -3 4 -12 1 -19z m170 -10 c-3 -8 -6 -5 -6 6 -1 11 2
17 5 13 3 -3 4 -12 1 -19z m-820 -20 c-3 -7 -5 -2 -5 12 0 14 2 19 5 13 2 -7
2 -19 0 -25z m339 -15 c-11 -11 -17 4 -9 23 7 18 8 18 11 1 2 -10 1 -21 -2
-24z m141 15 c-3 -8 -6 -5 -6 6 -1 11 2 17 5 13 3 -3 4 -12 1 -19z m-1587 -27
c21 -41 -21 -81 -58 -55 -38 26 -22 74 25 74 12 0 27 -9 33 -19z m1513 4 c-3
-9 -8 -14 -10 -11 -3 3 -2 9 2 15 9 16 15 13 8 -4z m775 -11 c38 -26 23 -84
-22 -84 -23 0 -56 27 -56 47 0 14 35 53 48 53 4 0 18 -7 30 -16z m-2450 -36
c18 -18 14 -45 -10 -62 -37 -26 -79 14 -58 55 12 21 50 25 68 7z m2620 -34
c27 -19 28 -45 2 -69 -27 -24 -68 -13 -76 22 -5 20 -2 31 16 45 27 22 30 22
58 2z m-1261 -41 c-3 -10 -5 -4 -5 12 0 17 2 24 5 18 2 -7 2 -21 0 -30z m88
27 c3 -5 1 -10 -4 -10 -6 0 -11 5 -11 10 0 6 2 10 4 10 3 0 8 -4 11 -10z m212
-22 c-3 -7 -5 -2 -5 12 0 14 2 19 5 13 2 -7 2 -19 0 -25z m-66 -31 c-13 -13
-15 1 -4 30 7 17 8 17 11 -1 2 -10 -1 -23 -7 -29z m-292 -12 c0 -5 -4 -3 -9 5
-5 8 -9 22 -9 30 0 16 17 -16 18 -35z m-1093 0 c26 -39 -31 -86 -64 -53 -17
17 -15 44 4 63 20 20 42 16 60 -10z m2182 -17 c18 -18 14 -53 -9 -74 -22 -20
-42 -14 -66 22 -26 40 40 87 75 52z m-941 -20 c-3 -8 -6 -5 -6 6 -1 11 2 17 5
13 3 -3 4 -12 1 -19z m-1403 -7 c31 -34 0 -80 -45 -66 -27 9 -34 43 -13 66 9
10 22 19 29 19 7 0 20 -9 29 -19z m967 -17 c5 -15 8 -29 5 -31 -2 -2 -8 10
-14 26 -13 38 -5 41 9 5z m1549 -28 c18 -22 8 -59 -20 -73 -22 -11 -28 -10
-49 12 -23 23 -24 25 -7 49 18 29 56 35 76 12z m-1383 -58 c-3 -8 -6 -5 -6 6
-1 11 2 17 5 13 3 -3 4 -12 1 -19z m-927 -3 c26 -32 -13 -81 -47 -59 -35 22
-23 74 17 74 10 0 23 -7 30 -15z m2070 -35 c24 -24 24 -29 4 -58 -17 -24 -53
-29 -72 -10 -19 19 -14 55 10 72 29 20 34 20 58 -4z m-2219 -21 c14 -26 -5
-59 -34 -59 -47 0 -63 48 -26 74 25 17 45 12 60 -15z m1276 -36 c-3 -10 -5 -4
-5 12 0 17 2 24 5 18 2 -7 2 -21 0 -30z m1099 -1 c6 -4 16 -16 22 -28 27 -51
-52 -87 -85 -38 -12 18 -11 24 8 47 21 28 35 32 55 19z m-2185 -52 c26 -14 25
-56 -2 -70 -41 -23 -80 20 -53 58 17 25 27 27 55 12z m-147 -61 c17 -25 12
-45 -15 -60 -26 -14 -59 5 -59 34 0 47 48 63 74 26z"/>
</g>
</svg>
